<svg xmlns="http://www.w3.org/2000/svg" width="1000" height="1000" viewBox="0 0 1000 1000">
  <defs>
    <style>
      .cls-1 {
        fill: #006ce6;
      }

      .cls-1, .cls-2 {
        fill-rule: evenodd;
      }

      .cls-2 {
        fill: #0e2270;
      }
    </style>
  </defs>
  <path id="Camelo_1" data-name="Camelo 1" class="cls-1" d="M278.717,49.978c-27.875-.634-41.669,13.426-62.463,19.855-35.415,10.953-87.293-17.207-91.194,44.3q4.374,7.639,8.745,15.277c3.447,13.168-8.654,27.15,3.748,33.611,0.207,0.106,25.542-16.783,39.976-13.751,8.717,7.54,35.2,33.069,41.224,42.774q6.87,24.438,13.741,48.882c11.129,34.356,30.221,63.145,52.469,84.021,24.819,23.286,100.228,53.171,112.431,79.437,7.051,15.173,15.7,104.479,7.5,129.848-6.244,9.169-14.642,6.9-18.739,19.861-3.833,13.173,3.5,20.526,3.747,33.608,0.594,31.086-7.023,66.688-16.239,88.6-13.908,33.063-69.877,72.526-73.706,103.882q0.624,2.289,1.25,4.578c14.853,10.033,35.032,6.994,52.468,1.529q3.747-10.689,7.495-21.386c10.888-9.688,16.632-5.42,22.486-21.387,13.712-37.4,15.108-86.635,29.982-122.211,7.173-17.156,26.634-28.929,31.231-45.829q-1.249-16.8-2.5-33.606c6.011-26.84,22.488-70.056,37.478-88.605h6.246c11.545,20.279,24.529,61.039,26.234,90.132,0.785,13.4-9.665,23.484-5,38.189,7.572,23.863,27.221,44.983,36.229,71.8,5.534,16.475,18.8,56.274,6.246,73.326-6.441,11.421-19.013,16.054-26.234,27.5l5,12.222a77.422,77.422,0,0,0,38.726-1.529c34.075-55.575,6.286-78.56-2.5-134.432V554.1c-9.462-32.822-32.842-67.673-8.744-109.99,23.607-2.706,57.554-37.662,69.957-33.608,15.81,14.464,25.336,51.5,33.73,74.853q13.74,29.02,27.484,58.05-1.25,20.625-2.5,41.244l11.245,25.972c4.7,28.186-19.928,107.155-28.733,125.263-15.441,31.76-47.712,39.5-63.712,68.745v6.111l2.5,3.055c105.687,11.627,89.187-69.531,116.18-154.29,6.3-19.795,32.5-65.914,28.733-88.6-2.965-17.838-58.63-131.686-23.737-158.874,2.96-2.421,4.523-2.768,9.994-3.055,9.674,7.9,17.627,24.838,18.739,42.774l-12.493,22.916c3.308,20.945,19.75,27.23,13.743,48.881,13.757-7.4,29.079-28.806,24.984-53.466-8.3-13.518-23.835-27.4-22.486-47.355,0.416-.511.833-1.019,1.249-1.529h5c12.724,12.7,35.456,25.69,39.976,47.358q0.625,21.382,1.249,42.771l22.486,30.555c13.71,33.3,6.867,96.708-2.5,129.845-3.516,12.445-10.794,32.082-18.738,39.722-13.29,12.777-44.022,22.115-31.231,51.939,14.85,4.08,26.529-1.744,38.727-7.639,41.7-20.148,48.718-83.531,48.721-154.29V537.289q5-12.22,9.993-24.442c6.765-36.6-63.769-107.25-74.955-152.764-14.313-58.239-9.142-116.645-34.978-157.345-25.392-40-65.761-44.776-102.438-71.8L601.021,75.946c-12.935-8.529-36.571-20.34-56.215-13.75-25.8,8.652-100.747,131.4-121.177,161.929C404.684,252.432,370,247.8,352.422,221.067c-9.085-13.81-15.328-27.744-22.487-44.3-8.878-20.529-15.631-42.929-22.485-67.216v-1.526q8.118-.767,16.239-1.526c1.39-4.329,2.274-5.029,1.25-9.166C321.571,84.088,289.247,57.712,278.717,49.978Z"/>
  <path id="SSCHONSS" class="cls-2" d="M143.271,849.347q0.5-7.4-5.133-15.147t-15.989-12.875a51.388,51.388,0,0,0-23.141-5.133q-23.226,0-36.69,9.593T45.656,850.862a47.509,47.509,0,0,0-1.01,9.257q0,21.544,26.592,27.433l3.7,0.841q12.623,2.694,18.513,4.292a27.225,27.225,0,0,1,8.751,3.7q2.86,2.108,2.188,5.134-2.019,8.922-22.889,8.92a22.738,22.738,0,0,1-10.014-1.936,15.028,15.028,0,0,1-5.722-4.376q-1.767-2.437-2.1-2.945a7.335,7.335,0,0,0-5.891-2.356H35.726a4.271,4.271,0,0,0-2.693,1.094,4.6,4.6,0,0,0-1.683,2.608q-0.675,8.585,5.386,16.662T53.65,932.32a55.766,55.766,0,0,0,23.815,5.049q24.906,0,39.635-8.92t18.429-26.087a44.338,44.338,0,0,0,1.01-8.92q0-11.274-7.49-18.008t-22.636-9.93q-12.457-2.69-18.261-4.291a32.277,32.277,0,0,1-8.667-3.451q-2.864-1.849-2.861-4.544a5.072,5.072,0,0,1,.168-1.514,8.92,8.92,0,0,1,5.975-6.648,33.753,33.753,0,0,1,12.2-1.936,23.543,23.543,0,0,1,8.92,1.515,11.861,11.861,0,0,1,5.133,3.45q1.428,1.936,1.6,2.272a8.393,8.393,0,0,0,2.609,2.1,8.784,8.784,0,0,0,3.618.589H138.9a4.272,4.272,0,0,0,2.693-1.094,4.619,4.619,0,0,0,1.683-2.609h0Zm113.6,0q0.5-7.4-5.133-15.147T235.75,821.325a51.388,51.388,0,0,0-23.141-5.133q-23.226,0-36.69,9.593t-16.662,25.077a47.525,47.525,0,0,0-1.01,9.257q0,21.544,26.592,27.433l3.7,0.841q12.622,2.694,18.513,4.292a27.224,27.224,0,0,1,8.751,3.7q2.86,2.108,2.188,5.134-2.019,8.922-22.889,8.92a22.739,22.739,0,0,1-10.014-1.936,15.032,15.032,0,0,1-5.722-4.376q-1.767-2.437-2.1-2.945a7.332,7.332,0,0,0-5.89-2.356H149.328a4.268,4.268,0,0,0-2.693,1.094,4.593,4.593,0,0,0-1.683,2.608q-0.675,8.585,5.385,16.662t16.915,13.128a55.764,55.764,0,0,0,23.814,5.049q24.906,0,39.635-8.92t18.429-26.087a44.338,44.338,0,0,0,1.01-8.92q0-11.274-7.49-18.008t-22.636-9.93q-12.458-2.69-18.261-4.291a32.265,32.265,0,0,1-8.667-3.451q-2.864-1.849-2.861-4.544a5.074,5.074,0,0,1,.168-1.514,8.92,8.92,0,0,1,5.975-6.648,33.749,33.749,0,0,1,12.2-1.936,23.543,23.543,0,0,1,8.92,1.515,11.871,11.871,0,0,1,5.134,3.45q1.428,1.936,1.6,2.272a8.4,8.4,0,0,0,2.609,2.1,8.789,8.789,0,0,0,3.619.589H252.5a4.272,4.272,0,0,0,2.693-1.094,4.613,4.613,0,0,0,1.683-2.609h0Zm38.875,41.571q0.671-4.88,2.693-14.474t3.366-13.8a29.268,29.268,0,0,1,8.583-14.137q6.06-5.385,16.662-5.386,10.1,0,13.8,3.787a16.7,16.7,0,0,1,4.544,9.509,8.633,8.633,0,0,0,1.094,3.871q0.757,1.01,3.45,1.01h22.048a4.794,4.794,0,0,0,2.945-1.094,3.774,3.774,0,0,0,1.6-2.609,31.983,31.983,0,0,0,.5-5.554,28.765,28.765,0,0,0-6.4-18.008,43.971,43.971,0,0,0-17-13.043,54.082,54.082,0,0,0-22.552-4.8q-25.247,0-40.224,12.707t-20.028,32.9q-4.884,20.029-6.4,29.957a41.055,41.055,0,0,0-.5,6.4,36,36,0,0,0,5.723,19.859,40.148,40.148,0,0,0,15.9,14.137,49.99,49.99,0,0,0,23.141,5.218q15.988,0,28.528-5.47A55.488,55.488,0,0,0,357.766,917a49.418,49.418,0,0,0,10.687-21.037,2.871,2.871,0,0,0-.589-2.609,3.044,3.044,0,0,0-2.44-1.094H343.376a5.921,5.921,0,0,0-3.87,1.01,16.133,16.133,0,0,0-2.862,3.871,30.273,30.273,0,0,1-8.5,9.425q-5.3,3.873-15.4,3.871-17.337,0-17.335-15.484a35.324,35.324,0,0,1,.336-4.039h0ZM497.2,817.875H475.154a5.26,5.26,0,0,0-3.45,1.346,5.371,5.371,0,0,0-1.936,3.2l-8.751,40.561H423.654l8.752-40.561a3.776,3.776,0,0,0-.758-3.2,3.605,3.605,0,0,0-2.945-1.346H406.656a5.262,5.262,0,0,0-3.451,1.346,5.37,5.37,0,0,0-1.935,3.2L378.044,931.142a3.8,3.8,0,0,0,.758,3.281,3.693,3.693,0,0,0,2.945,1.263h22.047a5.253,5.253,0,0,0,3.451-1.347,5.372,5.372,0,0,0,1.935-3.2l8.752-41.234H455.3l-8.752,41.234a3.751,3.751,0,0,0,.757,3.2,3.59,3.59,0,0,0,2.946,1.347h22.047a5.252,5.252,0,0,0,3.45-1.347,5.378,5.378,0,0,0,1.936-3.2L500.9,822.419a3.775,3.775,0,0,0-.757-3.2,3.605,3.605,0,0,0-2.945-1.346h0Zm75.566-1.683q-25.584,0-40.224,12.454t-20.2,33.156a260.871,260.871,0,0,0-6.4,29.957,47.772,47.772,0,0,0-.5,6.732,36.391,36.391,0,0,0,5.638,19.86A38.285,38.285,0,0,0,526.99,932.32a52.323,52.323,0,0,0,23.394,5.049q25.58,0,40.308-12.455t20.28-33.155q4.2-16.493,6.4-29.957a45.391,45.391,0,0,0,.5-6.732,36.031,36.031,0,0,0-5.722-19.86,38.916,38.916,0,0,0-15.988-13.969,52.338,52.338,0,0,0-23.394-5.049h0Zm13.464,42.917q0,4.543-2.02,14.39t-4.207,17.419a28.468,28.468,0,0,1-9.173,14.221q-6.48,5.3-16.409,5.3-8.922,0-13.128-4.292t-4.207-11.7a27.072,27.072,0,0,1,.168-3.534q0.84-6.06,2.609-14.39t3.45-13.885a28.689,28.689,0,0,1,9.088-14.221q6.395-5.3,16.326-5.3,8.917,0,13.211,4.292t4.292,11.7h0Zm115.117,76.577h14.137a5.25,5.25,0,0,0,3.45-1.347,5.378,5.378,0,0,0,1.936-3.2L744.1,822.419a3.775,3.775,0,0,0-.757-3.2,3.605,3.605,0,0,0-2.945-1.346H718.347a5.26,5.26,0,0,0-3.45,1.346,5.365,5.365,0,0,0-1.935,3.2l-12.118,56.886-29.789-57.559A6.276,6.276,0,0,0,665,817.875H650.858a5.26,5.26,0,0,0-3.45,1.346,5.37,5.37,0,0,0-1.935,3.2L622.247,931.142a3.751,3.751,0,0,0,.758,3.2,3.587,3.587,0,0,0,2.945,1.347H648a5.248,5.248,0,0,0,3.45-1.347,5.368,5.368,0,0,0,1.936-3.2L665.5,874.256l29.452,57.222a10.113,10.113,0,0,0,2.441,3.03,6.04,6.04,0,0,0,3.955,1.178h0Zm153.826-86.339q0.505-7.4-5.133-15.147t-15.988-12.875a51.392,51.392,0,0,0-23.142-5.133q-23.225,0-36.689,9.593t-16.662,25.077a47.525,47.525,0,0,0-1.01,9.257q0,21.544,26.592,27.433l3.7,0.841q12.622,2.694,18.513,4.292a27.221,27.221,0,0,1,8.752,3.7q2.861,2.108,2.188,5.134-2.019,8.922-22.889,8.92a22.739,22.739,0,0,1-10.014-1.936,15.032,15.032,0,0,1-5.722-4.376q-1.767-2.437-2.1-2.945a7.334,7.334,0,0,0-5.89-2.356H747.631a4.273,4.273,0,0,0-2.693,1.094,4.6,4.6,0,0,0-1.683,2.608q-0.673,8.585,5.386,16.662t16.914,13.128a55.768,55.768,0,0,0,23.815,5.049q24.906,0,39.635-8.92t18.429-26.087a44.332,44.332,0,0,0,1.009-8.92q0-11.274-7.489-18.008t-22.636-9.93q-12.457-2.69-18.261-4.291a32.288,32.288,0,0,1-8.668-3.451q-2.864-1.849-2.861-4.544a5.067,5.067,0,0,1,.169-1.514,8.918,8.918,0,0,1,5.974-6.648,33.755,33.755,0,0,1,12.2-1.936,23.543,23.543,0,0,1,8.92,1.515,11.861,11.861,0,0,1,5.133,3.45q1.428,1.936,1.6,2.272a8.393,8.393,0,0,0,2.609,2.1,8.784,8.784,0,0,0,3.618.589H850.8a4.27,4.27,0,0,0,2.692-1.094,4.613,4.613,0,0,0,1.683-2.609h0Zm113.6,0q0.5-7.4-5.134-15.147t-15.988-12.875a51.392,51.392,0,0,0-23.142-5.133q-23.225,0-36.689,9.593t-16.662,25.077a47.525,47.525,0,0,0-1.01,9.257q0,21.544,26.592,27.433l3.7,0.841q12.622,2.694,18.513,4.292a27.221,27.221,0,0,1,8.752,3.7q2.861,2.108,2.188,5.134-2.019,8.922-22.889,8.92A22.739,22.739,0,0,1,897,908.505a15.032,15.032,0,0,1-5.722-4.376q-1.767-2.437-2.1-2.945a7.334,7.334,0,0,0-5.89-2.356H861.232a4.273,4.273,0,0,0-2.693,1.094,4.6,4.6,0,0,0-1.683,2.608q-0.673,8.585,5.386,16.662t16.914,13.128a55.768,55.768,0,0,0,23.815,5.049q24.906,0,39.635-8.92t18.429-26.087a44.338,44.338,0,0,0,1.01-8.92q0-11.274-7.49-18.008t-22.636-9.93q-12.457-2.69-18.261-4.291a32.265,32.265,0,0,1-8.667-3.451q-2.865-1.849-2.862-4.544a5.067,5.067,0,0,1,.169-1.514,8.92,8.92,0,0,1,5.974-6.648,33.759,33.759,0,0,1,12.2-1.936,23.543,23.543,0,0,1,8.92,1.515,11.861,11.861,0,0,1,5.133,3.45q1.428,1.936,1.6,2.272a8.393,8.393,0,0,0,2.609,2.1,8.784,8.784,0,0,0,3.618.589H964.4a4.274,4.274,0,0,0,2.693-1.094,4.624,4.624,0,0,0,1.683-2.609h0Z"/>
</svg>
